<mxfile host="app.diagrams.net" modified="2023-11-05T10:32:16.882Z" agent="Mozilla/5.0 (X11; Linux x86_64) AppleWebKit/537.36 (KHTML, like Gecko) Chrome/107.0.0.0 Safari/537.36" version="22.0.8" etag="HN4umQRNaX58ZjPSwf8L" type="github">
  <diagram name="Page-1" id="JiM5DZFFCvFwltIVvtq5">
    <mxGraphModel>
      <root>
        <mxCell id="0" />
        <mxCell id="1" parent="0" />
      </root>
    </mxGraphModel>
  </diagram>
</mxfile>
